<?xml version="1.0" encoding="utf-8"?>
<!-- Generator: Adobe Illustrator 22.1.0, SVG Export Plug-In . SVG Version: 6.00 Build 0)  -->
<svg version="1.1" id="logo_x5F_amex" xmlns="http://www.w3.org/2000/svg" xmlns:xlink="http://www.w3.org/1999/xlink" x="0px"
	 y="0px" viewBox="0 0 25 22.1" style="enable-background:new 0 0 25 22.1;" xml:space="preserve">
<style type="text/css">
	.st0{fill:#00AAE5;}
	.st1{fill:#00B1E8;}
	.st2{fill:#47BAEB;}
	.st3{fill:#FFFFFF;}
	.st4{fill:#007DC3;}
</style>
<g>
	<g>
		<g>
			<g>
				<g>
					<g>
						<defs>
							<path id="SVGID_1_" d="M24.9,0h-22v22h22v-7.3c0.1-0.1,0.1-0.3,0.1-0.5c0-0.2,0-0.4-0.1-0.5V0z"/>
						</defs>
						<radialGradient id="SVGID_2_" cx="6.594" cy="3.8047" r="26.1854" gradientUnits="userSpaceOnUse">
							<stop  offset="0" style="stop-color:#84D5F7"/>
							<stop  offset="6.284389e-02" style="stop-color:#7ED1F6"/>
							<stop  offset="0.1465" style="stop-color:#69C9F2"/>
							<stop  offset="0.2419" style="stop-color:#40BCED"/>
							<stop  offset="0.3453" style="stop-color:#00ADE7"/>
							<stop  offset="0.3708" style="stop-color:#00AAE5"/>
							<stop  offset="0.4657" style="stop-color:#009CDB"/>
							<stop  offset="0.5907" style="stop-color:#008ED0"/>
							<stop  offset="0.7195" style="stop-color:#0084C8"/>
							<stop  offset="0.8533" style="stop-color:#007FC4"/>
							<stop  offset="1" style="stop-color:#007DC3"/>
						</radialGradient>
						<use xlink:href="#SVGID_1_"  style="overflow:visible;fill:url(#SVGID_2_);"/>
						<clipPath id="SVGID_3_">
							<use xlink:href="#SVGID_1_"  style="overflow:visible;"/>
						</clipPath>
					</g>
				</g>
			</g>
		</g>
		<g>
			<path class="st0" d="M15,8.8c0,0.4-0.3,0.6-0.4,0.7c0.1,0.1,0.2,0.1,0.3,0.2C15,9.8,15,9.9,15,10.1v0.5h-0.6l0-0.3
				c0-0.2,0-0.4-0.1-0.5c-0.1-0.1-0.2-0.1-0.4-0.1h-0.7v0.9h-0.6V8.1h1.4c0.3,0,0.5,0,0.7,0.1C14.9,8.3,15,8.5,15,8.8z"/>
			<polygon class="st1" points="12.1,10.7 10,10.7 10,8.1 12.1,8.1 12.1,8.6 10.7,8.6 10.7,9.1 12.1,9.1 12.1,9.6 10.7,9.6 
				10.7,10.1 12.1,10.1 			"/>
			<polygon class="st2" points="9.6,10.7 8.9,10.7 8.9,8.6 8,10.7 7.5,10.7 6.6,8.6 6.6,10.7 5.3,10.7 5.1,10.1 3.8,10.1 3.6,10.7 
				2.9,10.7 4,8.1 4.9,8.1 6,10.5 6,8.1 7,8.1 7.8,9.8 8.5,8.1 9.6,8.1 			"/>
			<path class="st3" d="M14.2,9.1c-0.1,0-0.2,0.1-0.3,0.1h-0.8V8.6h0.8c0.1,0,0.2,0,0.3,0c0.1,0,0.1,0.1,0.1,0.2
				C14.3,9,14.3,9.1,14.2,9.1z"/>
			<polygon class="st3" points="4.9,9.5 4.5,8.5 4,9.5 			"/>
		</g>
		<g>
			<path class="st3" d="M2.9,11.2H4l0.2-0.6h0.5L5,11.2H7v-0.4l0.2,0.4h1.1l0.2-0.4v0.4h5.2l0-0.9h0.1c0.1,0,0.1,0,0.1,0.1v0.8h2.7
				v-0.2c0.2,0.1,0.6,0.2,1,0.2h1.1l0.2-0.6h0.5l0.2,0.6h2.2v-0.5l0.3,0.5h1.7V7.6h-1.7V8l-0.2-0.4h-1.8V8l-0.2-0.4h-2.4
				c-0.4,0-0.7,0.1-1,0.2V7.6h-1.6v0.2c-0.2-0.2-0.4-0.2-0.7-0.2h-6L7.8,8.5L7.4,7.6H5.5V8L5.3,7.6H3.7L2.9,9.3V11.2z M23.3,10.7
				h-0.9l-1.2-1.9l0,1.9H20l-0.2-0.6h-1.3l-0.2,0.6h-0.7c-0.3,0-0.7-0.1-0.9-0.3c-0.2-0.2-0.3-0.5-0.3-1c0-0.4,0.1-0.7,0.3-1
				c0.2-0.2,0.5-0.3,0.9-0.3h0.6v0.6h-0.6c-0.2,0-0.4,0-0.5,0.2c-0.1,0.1-0.2,0.3-0.2,0.6c0,0.3,0.1,0.5,0.2,0.6
				c0.1,0.1,0.3,0.1,0.4,0.1h0.3l0.9-2h0.9l1,2.4V8.1h0.9l1.1,1.8V8.1h0.6V10.7z M16,10.7h-0.6V8.1H16V10.7z M15,8.8
				c0,0.4-0.3,0.6-0.4,0.7c0.1,0.1,0.2,0.1,0.3,0.2C15,9.8,15,9.9,15,10.1v0.5h-0.6l0-0.3c0-0.2,0-0.4-0.1-0.5
				c-0.1-0.1-0.2-0.1-0.4-0.1h-0.7v0.9h-0.6V8.1h1.4c0.3,0,0.5,0,0.7,0.1C14.9,8.3,15,8.5,15,8.8z M12.1,10.7H10V8.1h2.1v0.5h-1.4
				v0.5h1.4v0.5l-1.4,0v0.5h1.4V10.7z M9.6,10.7H8.9l0-2l-0.9,2H7.5l-0.9-2v2H5.3l-0.2-0.6H3.8l-0.2,0.6H2.9L4,8.1h0.9l1,2.4V8.1h1
				l0.8,1.8l0.7-1.8h1V10.7z M19.5,9.5l-0.4-1l-0.4,1H19.5z M14.2,9.1c-0.1,0-0.2,0.1-0.3,0.1h-0.8V8.6h0.8c0.1,0,0.2,0,0.3,0
				c0.1,0,0.1,0.1,0.1,0.2C14.3,9,14.3,9.1,14.2,9.1z M4.9,9.5l-0.4-1L4,9.5H4.9z"/>
			<path class="st3" d="M14.9,13.4c0,0.7-0.5,0.9-1.1,0.9H13v0.9h-1.2l-0.8-0.9l-0.8,0.9H7.8v-2.6h2.5l0.8,0.8l0.8-0.8h2
				C14.3,12.5,14.9,12.6,14.9,13.4z M10,14.6H8.4V14h1.4v-0.5H8.4V13H10l0.7,0.8L10,14.6z M12.4,14.9l-0.9-1.1l0.9-1V14.9z
				 M13.8,13.7H13V13h0.8c0.2,0,0.4,0.1,0.4,0.3C14.2,13.6,14.1,13.7,13.8,13.7z M18,12.5h2.1V13h-1.4v0.5H20V14h-1.4v0.5l1.4,0v0.5
				H18V12.5z M17.2,13.9c0.1,0.1,0.2,0.1,0.3,0.2c0.1,0.1,0.1,0.2,0.1,0.5v0.5H17v-0.3c0-0.2,0-0.4-0.1-0.5
				c-0.1-0.1-0.2-0.1-0.5-0.1h-0.7v0.9h-0.6v-2.6h1.4c0.3,0,0.5,0,0.7,0.1c0.2,0.1,0.3,0.3,0.3,0.6C17.6,13.6,17.4,13.8,17.2,13.9z
				 M16.8,13.6c-0.1,0-0.2,0.1-0.3,0.1h-0.8V13h0.8c0.1,0,0.2,0,0.3,0c0.1,0,0.1,0.1,0.1,0.2C17,13.4,16.9,13.5,16.8,13.6z
				 M22.4,13.7c0.1,0.1,0.2,0.3,0.2,0.5c0,0.6-0.3,0.8-1,0.8h-1.2v-0.6h1.2c0.1,0,0.2,0,0.3-0.1c0,0,0.1-0.1,0.1-0.2
				c0-0.1,0-0.1-0.1-0.2c0,0-0.1-0.1-0.2-0.1c-0.6,0-1.3,0-1.3-0.8c0-0.4,0.2-0.8,0.9-0.8h1.2v0.5h-1.1c-0.1,0-0.2,0-0.2,0
				c-0.1,0-0.1,0.1-0.1,0.2c0,0.1,0.1,0.2,0.1,0.2c0.1,0,0.1,0,0.2,0l0.3,0C22,13.5,22.3,13.6,22.4,13.7z M24.9,14.8
				c-0.2,0.2-0.4,0.3-0.8,0.3h-1.2v-0.6H24c0.1,0,0.2,0,0.2-0.1c0,0,0.1-0.1,0.1-0.2c0-0.1,0-0.1-0.1-0.2c0,0-0.1-0.1-0.2-0.1
				c-0.6,0-1.3,0-1.3-0.8c0-0.4,0.2-0.8,0.9-0.8h1.2V12h-1.1c-0.3,0-0.6,0.1-0.8,0.2V12h-1.7c-0.3,0-0.6,0.1-0.7,0.2l0-0.2h-3v0.2
				C17.3,12,16.9,12,16.7,12h-2v0.2C14.5,12,14.1,12,13.8,12h-2.2l-0.5,0.6L10.6,12H7.3v3.6h3.3l0.5-0.6l0.5,0.6l2,0v-0.8h0.2
				c0.3,0,0.6,0,0.9-0.1v1h1.7v-0.9h0.1c0.1,0,0.1,0,0.1,0.1v0.8h5c0.3,0,0.7-0.1,0.8-0.2v0.2H24c0.3,0,0.7,0,0.9-0.2V14.8z
				 M24.9,13.1h-1.1c-0.1,0-0.2,0-0.2,0c-0.1,0-0.1,0.1-0.1,0.2c0,0.1,0.1,0.2,0.1,0.2c0.1,0,0.1,0,0.2,0l0.3,0
				c0.3,0,0.6,0.1,0.7,0.2c0,0,0,0,0.1,0.1V13.1z"/>
		</g>
	</g>
	<g>
		<g>
			<g>
				<path class="st4" d="M1.5,21.6H1.3c0-0.1,0-0.2,0-0.3c0-0.1,0-0.1-0.1-0.1H0.9l0,0.4H0.7v-1h0.5c0.2,0,0.3,0.1,0.3,0.3
					c0,0.1-0.1,0.2-0.1,0.2c0,0,0.1,0.1,0.1,0.2l0,0.2C1.5,21.5,1.5,21.5,1.5,21.6L1.5,21.6z M1.3,20.9c0-0.1-0.1-0.1-0.1-0.1H0.9
					V21h0.3C1.2,21,1.3,21,1.3,20.9z M2.1,21.1c0-0.6-0.5-1-1-1c-0.6,0-1,0.5-1,1c0,0.6,0.5,1,1,1C1.6,22.1,2.1,21.7,2.1,21.1z
					 M1.9,21.1C1.9,21.6,1.6,22,1,22c-0.5,0-0.9-0.4-0.9-0.9c0-0.5,0.4-0.9,0.9-0.9C1.6,20.2,1.9,20.6,1.9,21.1z"/>
			</g>
		</g>
	</g>
</g>
</svg>
