<?xml version="1.0" encoding="utf-8"?>
<!-- Generator: Adobe Illustrator 22.1.0, SVG Export Plug-In . SVG Version: 6.00 Build 0)  -->
<svg version="1.1" id="home" xmlns="http://www.w3.org/2000/svg" xmlns:xlink="http://www.w3.org/1999/xlink" x="0px" y="0px"
	 viewBox="0 0 186.1 164.6" style="enable-background:new 0 0 186.1 164.6;" xml:space="preserve">
<path d="M184.9,70.4L101.6,3c-5-4-12.1-4-17.1,0L1.2,70.4c-1.1,0.9-1.5,2.3-1,3.6c0.5,1.3,1.7,2.1,3,2.1h14.2v75.4
	c0,7.2,5.9,13.1,13.1,13.1h38.9h47.2h38.9c7.2,0,13.1-5.9,13.1-13.1V76.1h14.2c1.4,0,2.6-0.9,3-2.1
	C186.3,72.6,185.9,71.2,184.9,70.4z M72.6,158.2v-52.7c0-3.6,2.9-6.4,6.4-6.4H107c3.6,0,6.4,2.9,6.4,6.4v52.7H72.6z M165.4,69.6
	c-1.8,0-3.2,1.4-3.2,3.2v78.7c0,3.7-3,6.6-6.6,6.6h-35.7v-52.7c0-7.1-5.8-12.9-12.9-12.9H79.1c-7.1,0-12.9,5.8-12.9,12.9v52.7H30.5
	c-3.7,0-6.6-3-6.6-6.6V72.9c0-1.8-1.4-3.2-3.2-3.2h-8.4L88.5,8c2.6-2.1,6.4-2.1,9,0l76.2,61.6H165.4z"/>
</svg>
