<?xml version="1.0" encoding="utf-8"?>
<!-- Generator: Adobe Illustrator 22.1.0, SVG Export Plug-In . SVG Version: 6.00 Build 0)  -->
<svg version="1.1" id="highlights" xmlns="http://www.w3.org/2000/svg" xmlns:xlink="http://www.w3.org/1999/xlink" x="0px" y="0px"
	 viewBox="0 0 102 98.4" style="enable-background:new 0 0 102 98.4;" xml:space="preserve">
<g>
	<g>
		<path d="M25,10.9h73.7c1.8,0,3.2-1.4,3.2-3.2s-1.4-3.2-3.2-3.2H25c-1.8,0-3.2,1.4-3.2,3.2S23.2,10.9,25,10.9z"/>
		<path d="M98.8,46.3H25c-1.8,0-3.2,1.4-3.2,3.2s1.4,3.2,3.2,3.2h73.7c1.8,0,3.2-1.4,3.2-3.2S100.5,46.3,98.8,46.3z"/>
		<path d="M98.8,88.1H25c-1.8,0-3.2,1.4-3.2,3.2s1.4,3.2,3.2,3.2h73.7c1.8,0,3.2-1.4,3.2-3.2S100.5,88.1,98.8,88.1z"/>
	</g>
	<path d="M11.4,15.4H4c-2.2,0-4-1.8-4-4V4c0-2.2,1.8-4,4-4h7.4c2.2,0,4,1.8,4,4v7.4C15.4,13.6,13.6,15.4,11.4,15.4z"/>
	<path d="M11.4,56.4H4c-2.2,0-4-1.8-4-4V45c0-2.2,1.8-4,4-4h7.4c2.2,0,4,1.8,4,4v7.4C15.4,54.6,13.6,56.4,11.4,56.4z"/>
	<path d="M11.4,98.4H4c-2.2,0-4-1.8-4-4V87c0-2.2,1.8-4,4-4h7.4c2.2,0,4,1.8,4,4v7.4C15.4,96.6,13.6,98.4,11.4,98.4z"/>
</g>
</svg>
