<svg version="1.1" xmlns="http://www.w3.org/2000/svg">
	<defs>
		<path id="home" d="M184.9,70.4L101.6,3c-5-4-12.1-4-17.1,0L1.2,70.4c-1.1,0.9-1.5,2.3-1,3.6c0.5,1.3,1.7,2.1,3,2.1h14.2v75.4
	c0,7.2,5.9,13.1,13.1,13.1h38.9h47.2h38.9c7.2,0,13.1-5.9,13.1-13.1V76.1h14.2c1.4,0,2.6-0.9,3-2.1
	C186.3,72.6,185.9,71.2,184.9,70.4z M72.6,158.2v-52.7c0-3.6,2.9-6.4,6.4-6.4H107c3.6,0,6.4,2.9,6.4,6.4v52.7H72.6z M165.4,69.6
	c-1.8,0-3.2,1.4-3.2,3.2v78.7c0,3.7-3,6.6-6.6,6.6h-35.7v-52.7c0-7.1-5.8-12.9-12.9-12.9H79.1c-7.1,0-12.9,5.8-12.9,12.9v52.7H30.5
	c-3.7,0-6.6-3-6.6-6.6V72.9c0-1.8-1.4-3.2-3.2-3.2h-8.4L88.5,8c2.6-2.1,6.4-2.1,9,0l76.2,61.6H165.4z"/>
		<g id="overview">
	<path d="M187.6,39.3C151.3,6.5,112.8-5.9,73.1,2.6c-32.3,6.8-56.9,26-68.7,36.8C1.6,42,0,45.7,0,49.5S1.6,57,4.5,59.6
		c11.8,10.8,36.4,30,68.7,36.8c8,1.7,16,2.6,24,2.6c31.2,0,61.5-13.2,90.5-39.3c2.9-2.6,4.6-6.3,4.6-10.2S190.5,41.9,187.6,39.3z
		 M183.3,55C104,126.5,34.9,78.8,8.8,54.9c-1.5-1.4-2.4-3.3-2.4-5.4c0-2.1,0.8-4,2.4-5.4C24.6,29.6,56.4,6.3,96.7,6.3
		c26,0,55.5,9.7,86.6,37.8c1.6,1.4,2.4,3.3,2.4,5.4C185.7,51.6,184.8,53.5,183.3,55z"/>
	<path d="M96.3,24.9c-13.5,0-24.6,11-24.6,24.6s11,24.6,24.6,24.6c13.5,0,24.6-11,24.6-24.6S109.8,24.9,96.3,24.9z M96.3,67.6
		c-10,0-18.1-8.1-18.1-18.1c0-10,8.1-18.1,18.1-18.1c10,0,18.1,8.1,18.1,18.1C114.4,59.5,106.3,67.6,96.3,67.6z"/>
</g>
	</defs>
</svg>